<!-- Generated by IcoMoon.io -->
<svg version="1.1" xmlns="http://www.w3.org/2000/svg" width="32" height="32" viewBox="0 0 32 32"><title>bw-shield</title>
<path fill="#ffffff" d="M28.965-0.1c-0.121-0.127-0.266-0.228-0.427-0.297s-0.335-0.104-0.51-0.104h-24.023c-0.175-0.001-0.349 0.034-0.51 0.103s-0.306 0.17-0.427 0.297c-0.127 0.121-0.228 0.266-0.297 0.427s-0.104 0.335-0.103 0.51v16.016c0.005 1.219 0.241 2.427 0.697 3.557 0.434 1.116 1.016 2.169 1.732 3.129 0.736 0.962 1.559 1.852 2.46 2.661 0.836 0.767 1.717 1.484 2.637 2.148 0.801 0.569 1.642 1.107 2.522 1.616s1.503 0.852 1.866 1.031c0.366 0.18 0.663 0.322 0.883 0.416 0.172 0.083 0.361 0.124 0.552 0.12 0.188 0.003 0.375-0.041 0.543-0.126 0.224-0.098 0.517-0.236 0.887-0.416s1.001-0.524 1.866-1.031c0.865-0.506 1.716-1.047 2.522-1.616 0.921-0.664 1.803-1.382 2.641-2.148 0.902-0.807 1.726-1.698 2.46-2.661 0.715-0.961 1.297-2.013 1.732-3.129 0.456-1.131 0.693-2.338 0.697-3.557v-16.016c0.001-0.174-0.034-0.347-0.103-0.507s-0.169-0.304-0.296-0.424v0zM25.868 16.998c0 5.806-9.852 10.793-9.852 10.793v-24.86h9.852v14.068z"></path>
</svg>
