<!-- Generated by IcoMoon.io -->
<svg version="1.1" xmlns="http://www.w3.org/2000/svg" width="32" height="32" viewBox="0 0 32 32"><title>bw-send</title>
<path fill="#ffffff" d="M31.584-0.3c-0.167-0.12-0.364-0.189-0.569-0.199s-0.408 0.039-0.586 0.141l-29.893 17.101c-0.171 0.097-0.311 0.241-0.406 0.413s-0.139 0.368-0.128 0.565c0.010 0.196 0.075 0.386 0.187 0.548s0.267 0.289 0.447 0.368l7.531 3.319c0.129 0.063 0.269 0.101 0.412 0.108s0.287-0.013 0.421-0.061 0.259-0.124 0.364-0.222c0.105-0.098 0.189-0.215 0.248-0.347s0.090-0.272 0.092-0.416c0.002-0.143-0.024-0.286-0.078-0.419s-0.134-0.253-0.236-0.355-0.223-0.181-0.356-0.234l-4.695-2.068c-0.085-0.037-0.159-0.098-0.212-0.174s-0.084-0.166-0.089-0.259c-0.005-0.093 0.016-0.186 0.061-0.267s0.111-0.15 0.192-0.196l24.2-13.846c0.084-0.049 0.18-0.073 0.277-0.068s0.191 0.037 0.27 0.093c0.079 0.056 0.14 0.135 0.176 0.225s0.045 0.189 0.026 0.284l-4.452 22.358c-0.015 0.073-0.046 0.141-0.090 0.201s-0.101 0.109-0.166 0.144c-0.065 0.035-0.137 0.056-0.211 0.060s-0.148-0.007-0.217-0.035l-6.37-2.508c-0.323-0.127-0.68-0.144-1.014-0.049s-0.628 0.298-0.835 0.577l-1.534 2.076c0 0-0.43 0.43-0.521-0.126l-0.020-2.603c-0.002-0.125 0.042-0.245 0.122-0.34l11.543-13.433c0.091-0.106 0.16-0.229 0.204-0.362s0.060-0.273 0.049-0.412c-0.011-0.139-0.050-0.275-0.114-0.399s-0.152-0.235-0.259-0.325c-0.216-0.183-0.496-0.274-0.778-0.252s-0.545 0.155-0.73 0.37l-11.802 13.741c-0.245 0.287-0.378 0.652-0.376 1.029l0.050 7.025c0.002 0.224 0.075 0.442 0.208 0.623s0.319 0.315 0.533 0.384c0.213 0.069 0.443 0.069 0.656 0s0.4-0.203 0.533-0.384l3.467-4.691c0.067-0.091 0.163-0.157 0.271-0.188s0.224-0.025 0.329 0.017l7.363 2.907c0.146 0.057 0.302 0.082 0.458 0.073s0.309-0.053 0.446-0.127c0.138-0.074 0.257-0.178 0.35-0.303s0.157-0.27 0.187-0.423l5.489-27.593c0.040-0.2 0.021-0.408-0.055-0.598s-0.205-0.353-0.372-0.471v0z"></path>
</svg>
